<?xml version="1.0" ?><svg data-name="Layer 1" id="Layer_1" viewBox="0 0 128 128" xmlns="http://www.w3.org/2000/svg"><title/><path d="M34.09,7.17A1,1,0,1,0,34.86,9a60.28,60.28,0,0,1,65.86,13.11,48.19,48.19,0,0,1,0,68.08,38.31,38.31,0,0,1-54.18,0,30.49,30.49,0,0,1,0-43.06,24.15,24.15,0,0,1,34.17,0,19.13,19.13,0,0,1,0,27.05,15.12,15.12,0,0,1-21.36,0,11.9,11.9,0,0,1,0-16.8,1,1,0,0,0,0-1.42,1,1,0,0,0-1.41,0,13.88,13.88,0,0,0,0,19.63,17.11,17.11,0,0,0,24.18,0,21.11,21.11,0,0,0,0-29.87,26.13,26.13,0,0,0-37,0,32.47,32.47,0,0,0,0,45.89,40.32,40.32,0,0,0,57,0,50.2,50.2,0,0,0,0-70.91A62.26,62.26,0,0,0,34.09,7.17Z"/><path d="M28,12.25a1,1,0,0,0,.49-.13c.88-.49,1.78-1,2.68-1.42a1,1,0,0,0,.45-1.34,1,1,0,0,0-1.34-.45c-.93.46-1.86,1-2.77,1.46A1,1,0,0,0,28,12.25Z"/><path d="M21.06,14.52a64.27,64.27,0,0,0-7.21,6.2,1,1,0,0,0,0,1.41,1,1,0,0,0,.71.3,1,1,0,0,0,.71-.3,60.88,60.88,0,0,1,7-6,1,1,0,1,0-1.18-1.62Z"/><path d="M111.45,113a1,1,0,0,0-1.39-.25,60.31,60.31,0,0,1-77.3-6.84,48.19,48.19,0,0,1,0-68.08,38.31,38.31,0,0,1,54.18,0,30.49,30.49,0,0,1,0,43.06,24.18,24.18,0,0,1-34.16,0,19.14,19.14,0,0,1,0-27,15.11,15.11,0,0,1,21.35,0,11.88,11.88,0,0,1,0,16.8A1,1,0,0,0,75.55,72a13.9,13.9,0,0,0,0-19.63,17.12,17.12,0,0,0-24.19,0,21.14,21.14,0,0,0,0,29.87,26.19,26.19,0,0,0,37,0,32.49,32.49,0,0,0,0-45.89,40.37,40.37,0,0,0-57,0,50.2,50.2,0,0,0,0,70.91,62.29,62.29,0,0,0,79.85,7.07A1,1,0,0,0,111.45,113Z"/><path d="M8.28,58.18A1,1,0,0,0,7.13,59,72.38,72.38,0,0,0,6.4,77.77a1,1,0,0,0,1,.91h.09a1,1,0,0,0,.9-1.09A70.6,70.6,0,0,1,9.1,59.33,1,1,0,0,0,8.28,58.18Z"/><path d="M10.15,92.78a.92.92,0,0,0,.29,0,1,1,0,0,0,.67-1.25,69.55,69.55,0,0,1-1.89-7.85,1,1,0,1,0-2,.35,73.66,73.66,0,0,0,1.94,8.08A1,1,0,0,0,10.15,92.78Z"/><path d="M118.21,105.87c-1.15,1.15-2.35,2.26-3.57,3.3a1,1,0,0,0,1.3,1.52c1.26-1.08,2.5-2.22,3.69-3.41a1,1,0,0,0,0-1.41A1,1,0,0,0,118.21,105.87Z"/><path d="M100.63,39.86a1,1,0,0,0,1,.71,1,1,0,0,0,1-.71,5.33,5.33,0,0,1,3.52-3.51,1,1,0,0,0,.7-1,1,1,0,0,0-.7-1,5.34,5.34,0,0,1-3.52-3.52,1,1,0,0,0-1-.7,1,1,0,0,0-1,.7,5.33,5.33,0,0,1-3.51,3.52,1,1,0,0,0-.71,1,1,1,0,0,0,.71,1A5.31,5.31,0,0,1,100.63,39.86Zm1-6.37a7.15,7.15,0,0,0,1.9,1.9,7.3,7.3,0,0,0-1.9,1.9,7.46,7.46,0,0,0-1.9-1.9A7.3,7.3,0,0,0,101.59,33.49Z"/><path d="M115,21.86a1,1,0,0,0,1,.71,1,1,0,0,0,1-.71A7.31,7.31,0,0,1,121.71,17a1,1,0,0,0,0-1.91,7.29,7.29,0,0,1-4.84-4.84,1,1,0,0,0-1-.7,1,1,0,0,0-1,.7,7.33,7.33,0,0,1-4.84,4.84,1,1,0,0,0,0,1.91A7.35,7.35,0,0,1,115,21.86Zm1-8.88A9.32,9.32,0,0,0,119,16.07a9.29,9.29,0,0,0-3.09,3.08,9.35,9.35,0,0,0-3.08-3.08A9.38,9.38,0,0,0,115.91,13Z"/><path d="M9.88,28.35a1,1,0,0,0-1.92,0,5.29,5.29,0,0,1-3.51,3.51,1,1,0,0,0-.7,1,1,1,0,0,0,.7,1A5.31,5.31,0,0,1,8,37.29a1,1,0,0,0,1.92,0,5.31,5.31,0,0,1,3.51-3.52,1,1,0,0,0,.7-1,1,1,0,0,0-.7-1A5.29,5.29,0,0,1,9.88,28.35Zm-1,6.37A7.15,7.15,0,0,0,7,32.82a7.3,7.3,0,0,0,1.9-1.9,7.46,7.46,0,0,0,1.9,1.9A7.3,7.3,0,0,0,8.92,34.72Z"/><path d="M123.55,89.94a7.81,7.81,0,0,1-5.18-5.18,1,1,0,0,0-1-.7,1,1,0,0,0-1,.7,7.83,7.83,0,0,1-5.18,5.18,1,1,0,0,0-.71,1,1,1,0,0,0,.71.95A7.87,7.87,0,0,1,116.46,97a1,1,0,0,0,1,.71,1,1,0,0,0,1-.71,7.85,7.85,0,0,1,5.18-5.18,1,1,0,0,0,.7-.95A1,1,0,0,0,123.55,89.94Zm-6.14,4.36a9.71,9.71,0,0,0-3.4-3.4,9.79,9.79,0,0,0,3.4-3.4,10,10,0,0,0,3.4,3.4A9.88,9.88,0,0,0,117.41,94.3Z"/><path d="M31.21,81.59a1,1,0,0,0-1-.71,1,1,0,0,0-.95.71,5.31,5.31,0,0,1-3.52,3.51,1,1,0,0,0-.7,1,1,1,0,0,0,.7,1,5.32,5.32,0,0,1,3.52,3.52,1,1,0,0,0,.95.7,1,1,0,0,0,1-.7A5.33,5.33,0,0,1,34.72,87a1,1,0,0,0,.71-1,1,1,0,0,0-.71-1A5.31,5.31,0,0,1,31.21,81.59Zm-1,6.37a7.15,7.15,0,0,0-1.9-1.9,7.3,7.3,0,0,0,1.9-1.9,7.46,7.46,0,0,0,1.9,1.9A7.3,7.3,0,0,0,30.25,88Z"/><path d="M26.36,20.08a1,1,0,0,0-1,.71,8.69,8.69,0,0,1-5.75,5.75,1,1,0,0,0-.71,1,1,1,0,0,0,.71.95,8.68,8.68,0,0,1,5.75,5.76,1,1,0,0,0,1.92,0,8.7,8.7,0,0,1,5.75-5.76,1,1,0,0,0,.71-.95,1,1,0,0,0-.71-1,8.71,8.71,0,0,1-5.75-5.75A1,1,0,0,0,26.36,20.08Zm3.93,7.42a10.71,10.71,0,0,0-3.93,3.92,10.71,10.71,0,0,0-3.93-3.92,10.73,10.73,0,0,0,3.93-3.93A10.73,10.73,0,0,0,30.29,27.5Z"/></svg>